<?xml version="1.0" standalone="no"?>
<!DOCTYPE svg PUBLIC "-//W3C//DTD SVG 20010904//EN"
 "http://www.w3.org/TR/2001/REC-SVG-20010904/DTD/svg10.dtd">
<svg version="1.0" xmlns="http://www.w3.org/2000/svg"
 width="2048.000000pt" height="2048.000000pt" viewBox="0 0 2048.000000 2048.000000"
 preserveAspectRatio="xMidYMid meet">
<metadata>
Created by potrace 1.11, written by Peter Selinger 2001-2013
</metadata>
<g transform="translate(0.000000,2048.000000) scale(0.100000,-0.100000)"
fill="#000000" stroke="none">
<path d="M18958 13564 c-5 -5 -250 -7 -1738 -18 -1099 -9 -1722 -20 -1740 -31
-5 -3 -11 -1 -15 5 -4 6 -12 7 -18 3 -6 -4 -48 -8 -92 -9 -121 -2 -524 -20
-680 -29 -376 -23 -440 -27 -475 -31 -19 -1 -80 -5 -135 -9 -55 -3 -116 -7
-135 -9 -19 -2 -75 -7 -125 -10 -49 -4 -101 -8 -115 -10 -14 -3 -61 -7 -105
-11 -44 -3 -96 -8 -115 -10 -19 -2 -69 -7 -110 -10 -105 -10 -128 -12 -190
-20 -91 -11 -112 -13 -175 -19 -33 -3 -76 -8 -95 -10 -19 -3 -62 -8 -95 -11
-33 -4 -71 -8 -85 -10 -75 -8 -152 -16 -205 -21 -33 -3 -73 -7 -90 -9 -16 -2
-61 -7 -100 -10 -38 -4 -86 -8 -105 -10 -19 -2 -69 -7 -110 -10 -41 -4 -91 -9
-110 -11 -33 -3 -76 -7 -225 -19 -33 -2 -96 -7 -140 -11 -134 -10 -306 -21
-455 -29 -41 -2 -75 -4 -75 -5 0 0 -81 -3 -180 -7 -246 -8 -749 -8 -925 0
-288 14 -346 17 -410 23 -36 2 -94 7 -130 9 -36 2 -92 6 -125 9 -33 3 -96 8
-140 11 -44 4 -98 9 -120 11 -62 7 -135 14 -195 19 -106 8 -200 17 -305 30
-27 4 -72 8 -100 9 -27 2 -66 6 -85 10 -33 5 -115 14 -206 21 -23 2 -57 6 -75
9 -19 2 -68 8 -109 12 -41 3 -86 8 -100 10 -14 1 -47 5 -75 8 -27 3 -75 9
-105 12 -30 4 -74 7 -97 8 -24 0 -43 3 -43 6 0 3 -26 6 -58 7 -31 1 -75 4 -97
7 -42 6 -116 12 -250 22 -44 3 -93 7 -110 9 -16 3 -75 7 -130 10 -220 12 -254
14 -355 20 -203 13 -275 16 -300 15 -14 -1 -29 -1 -35 -1 -223 18 -1229 27
-1765 16 -493 -10 -1119 -35 -1515 -60 -49 -4 -117 -8 -150 -10 -88 -5 -243
-15 -300 -20 -27 -3 -90 -7 -140 -10 -49 -3 -101 -7 -115 -10 -14 -2 -68 -7
-120 -11 -153 -11 -221 -17 -338 -29 -88 -9 -160 -16 -202 -19 -40 -4 -95 -10
-195 -21 -16 -2 -57 -6 -90 -10 -33 -4 -76 -9 -95 -11 -19 -3 -53 -6 -74 -9
-39 -4 -118 -13 -166 -20 -14 -2 -49 -7 -79 -10 -30 -4 -61 -8 -70 -10 -32 -6
-126 -18 -126 -16 0 2 -13 -3 -29 -9 -16 -6 -46 -13 -67 -15 -21 -3 -76 -17
-121 -31 -46 -15 -87 -27 -93 -29 -28 -5 -128 -57 -176 -90 -63 -44 -129 -110
-146 -145 -30 -63 -42 -98 -47 -132 -3 -21 -9 -55 -13 -75 -17 -90 -7 -385 17
-513 15 -79 77 -240 92 -240 5 0 8 -7 8 -15 0 -8 5 -15 10 -15 6 0 10 -6 10
-12 0 -7 18 -37 40 -66 22 -29 40 -56 40 -61 0 -5 4 -11 9 -13 14 -5 124 -175
164 -253 46 -88 92 -194 103 -235 2 -8 13 -46 24 -85 27 -92 29 -101 49 -235
10 -63 17 -134 17 -158 -1 -23 2 -42 5 -42 3 0 6 -10 6 -22 -1 -13 3 -59 7
-103 4 -44 10 -100 12 -125 3 -40 8 -84 19 -175 16 -132 39 -274 55 -350 11
-49 22 -103 24 -120 4 -25 29 -118 86 -320 48 -172 147 -447 216 -602 8 -18
21 -50 30 -70 18 -43 130 -279 144 -304 5 -10 31 -57 58 -105 27 -49 58 -105
68 -124 11 -19 21 -37 24 -40 13 -12 60 -91 60 -99 0 -5 3 -11 8 -13 4 -1 31
-38 61 -81 29 -43 59 -86 66 -95 8 -9 35 -44 62 -77 108 -136 249 -276 388
-387 55 -43 108 -86 118 -94 9 -8 20 -14 24 -14 3 0 20 -10 37 -23 43 -32 185
-117 196 -117 4 0 10 -3 12 -7 6 -14 294 -146 343 -158 6 -1 23 -7 40 -14 69
-28 311 -95 384 -106 14 -2 37 -6 51 -9 14 -4 41 -8 60 -11 19 -3 53 -7 75
-10 22 -3 56 -8 75 -10 63 -7 134 -16 165 -21 17 -2 53 -7 80 -9 28 -3 68 -7
90 -10 22 -3 60 -7 85 -9 46 -4 127 -12 215 -22 28 -3 77 -7 110 -9 33 -2 83
-6 110 -9 370 -35 1100 -35 1540 0 28 2 84 6 125 9 41 4 93 8 115 9 38 3 107
10 220 22 28 3 70 7 95 10 25 3 56 6 70 9 14 2 44 6 67 10 23 4 59 8 80 10 21
2 52 7 68 10 17 3 44 7 60 10 17 3 41 7 55 10 27 6 68 13 115 21 17 3 59 12
95 20 36 9 72 17 80 19 8 2 15 4 15 5 0 1 7 3 15 5 58 12 245 70 270 84 9 5
31 12 50 16 19 4 40 11 45 15 6 4 21 11 33 15 13 4 45 16 70 28 26 12 49 22
52 23 29 9 70 30 70 36 0 4 5 8 10 8 23 0 178 83 298 158 52 33 185 125 192
132 3 3 30 25 60 48 95 73 255 222 350 328 104 115 262 331 300 409 8 17 21
36 28 43 6 7 12 19 12 27 0 7 3 15 8 17 9 4 52 90 51 102 0 5 3 12 8 15 8 6
38 66 43 86 1 6 10 26 20 45 9 19 34 78 54 130 20 52 41 104 46 115 5 11 32
92 61 180 28 88 54 167 57 175 3 8 6 20 8 27 1 7 12 43 23 80 12 38 23 77 26
88 2 11 16 61 30 110 14 50 28 103 31 119 2 16 7 33 10 38 3 5 21 73 40 151
20 78 37 149 39 157 2 8 4 15 5 15 1 0 3 11 5 25 2 14 20 95 40 180 20 85 38
166 41 180 3 14 8 34 11 45 4 11 7 27 9 35 1 8 9 49 19 90 16 69 27 119 40
179 3 12 13 53 21 90 9 36 18 80 21 96 3 17 9 35 14 41 5 6 7 13 4 16 -3 3 2
32 10 64 9 32 18 66 20 74 2 8 4 15 5 15 1 0 3 9 5 20 19 115 78 246 140 311
25 26 95 78 95 71 0 -3 16 1 35 9 41 17 128 28 200 26 57 -1 175 -31 175 -43
0 -5 3 -8 8 -7 7 2 63 -23 72 -32 3 -3 23 -18 44 -34 155 -116 305 -329 492
-698 46 -92 84 -173 84 -182 0 -8 3 -16 8 -18 13 -5 259 -597 287 -688 4 -14
15 -43 25 -65 19 -44 81 -211 85 -229 1 -6 8 -24 14 -41 7 -16 14 -35 15 -42
1 -7 5 -16 9 -19 4 -4 7 -14 7 -22 0 -8 6 -28 14 -45 7 -18 18 -45 24 -62 68
-193 125 -353 142 -390 7 -17 19 -47 25 -65 4 -10 36 -86 49 -115 7 -16 24
-55 37 -85 40 -95 182 -375 190 -378 5 -2 9 -7 9 -12 0 -9 80 -152 90 -160 3
-3 21 -31 40 -62 19 -32 38 -58 42 -58 4 0 8 -5 8 -10 0 -9 71 -111 90 -130 3
-3 25 -30 49 -60 216 -267 478 -478 784 -634 148 -75 170 -85 302 -135 121
-46 325 -107 425 -127 14 -3 41 -9 60 -14 19 -5 49 -12 65 -14 32 -6 52 -10
130 -26 28 -5 68 -12 90 -15 22 -3 54 -7 70 -9 17 -2 71 -9 120 -15 50 -7 108
-14 130 -17 67 -8 126 -13 215 -19 47 -3 137 -8 200 -12 248 -15 957 -9 1195
12 22 1 74 6 115 9 41 4 89 8 105 11 17 2 55 6 85 9 30 3 73 9 95 12 22 4 55
8 72 8 18 1 33 5 33 9 0 5 4 6 8 3 4 -2 77 9 162 25 85 16 164 31 175 33 11 2
52 11 90 21 39 9 79 19 90 21 11 1 45 10 75 19 30 9 62 18 70 20 156 42 381
123 585 210 104 45 348 173 353 186 2 5 10 9 17 9 11 0 293 183 305 199 3 3
42 34 87 69 90 68 96 74 239 213 127 123 193 196 269 293 17 21 35 44 40 50
32 35 205 287 205 299 0 5 6 14 13 22 15 16 70 106 73 120 1 6 15 33 32 61 16
28 33 61 37 72 3 12 10 22 15 22 8 0 25 48 22 63 -1 4 2 7 7 7 5 0 12 10 16
23 4 12 8 24 10 27 1 3 13 30 27 60 24 54 40 90 43 100 1 3 9 22 18 43 19 44
68 177 71 192 1 6 4 15 7 20 6 9 69 208 74 230 3 14 33 124 45 160 9 30 14 52
26 110 3 17 8 37 11 45 6 15 9 30 17 80 2 14 9 48 16 75 6 28 13 59 15 70 17
91 27 150 30 173 2 15 6 36 8 47 3 11 8 43 11 70 4 28 9 61 11 75 2 14 6 45 9
70 3 25 8 54 10 66 2 11 7 59 10 106 4 47 8 96 11 109 4 28 13 140 21 259 12
188 35 333 56 346 4 3 8 14 8 26 0 18 106 236 121 248 3 3 12 16 19 30 16 29
107 156 132 184 17 19 18 66 18 753 0 579 -3 733 -12 734 -7 1 -22 3 -33 4
-246 30 -724 54 -1192 60 -144 1 -266 5 -271 9 -5 3 -12 3 -14 0z m-13988
-1125 c0 -4 15 -4 33 0 38 9 78 7 94 -2 7 -4 14 -3 17 2 4 5 18 6 34 2 15 -5
36 -5 47 -1 11 4 23 6 27 4 3 -2 93 -7 200 -9 106 -3 229 -8 273 -10 44 -3
123 -7 175 -10 107 -6 213 -14 250 -20 14 -2 65 -6 113 -10 48 -3 96 -8 106
-10 10 -2 42 -6 72 -10 30 -3 72 -8 94 -11 22 -4 49 -7 60 -9 46 -6 122 -17
150 -22 17 -3 39 -7 50 -9 150 -25 303 -58 500 -109 77 -20 145 -38 150 -39 6
-1 19 -5 30 -8 11 -4 67 -21 125 -38 233 -70 489 -164 502 -184 4 -6 8 -7 8
-2 0 5 8 3 18 -6 9 -8 28 -20 42 -26 91 -45 189 -131 248 -218 42 -62 99 -195
120 -276 15 -65 18 -109 16 -265 -1 -104 -5 -208 -7 -233 -6 -48 -17 -192 -22
-300 -2 -36 -7 -87 -10 -115 -4 -27 -8 -72 -10 -100 -4 -60 -13 -145 -20 -200
-3 -22 -8 -62 -10 -90 -4 -45 -11 -98 -21 -150 -2 -10 -6 -37 -10 -60 -3 -22
-14 -78 -25 -125 -11 -47 -22 -94 -24 -106 -9 -41 -87 -280 -105 -319 -15 -34
-28 -65 -35 -85 -21 -53 -40 -90 -47 -90 -4 0 -8 -8 -8 -17 0 -38 -171 -291
-282 -417 -51 -59 -147 -156 -153 -156 -3 0 -17 -13 -32 -28 -58 -59 -169
-143 -287 -216 -120 -74 -436 -216 -481 -216 -8 0 -15 -5 -15 -12 0 -6 -3 -9
-6 -5 -3 3 -25 -1 -47 -9 -43 -16 -256 -73 -292 -80 -11 -1 -33 -5 -50 -8
-101 -18 -205 -35 -240 -40 -22 -4 -53 -9 -70 -11 -16 -3 -57 -8 -90 -11 -33
-3 -80 -7 -105 -10 -25 -2 -70 -6 -100 -9 -30 -4 -82 -8 -115 -10 -33 -2 -82
-6 -110 -9 -27 -3 -86 -8 -130 -11 -44 -3 -107 -8 -140 -11 -88 -8 -581 -8
-720 -1 -288 17 -409 24 -505 33 -36 3 -90 7 -120 9 -54 4 -95 9 -195 21 -27
4 -61 8 -75 9 -14 1 -47 6 -75 10 -27 5 -54 10 -60 10 -5 1 -12 3 -15 4 -3 1
-20 4 -39 7 -41 5 -92 16 -136 28 -5 2 -28 6 -50 11 -22 4 -55 14 -72 22 -18
7 -33 11 -33 8 0 -4 -6 -3 -12 2 -7 4 -18 8 -24 9 -12 2 -129 42 -159 54 -117
49 -171 75 -235 110 -41 22 -85 46 -97 52 -13 6 -23 15 -23 20 0 4 -4 8 -10 8
-10 0 -103 66 -154 110 -52 45 -142 137 -182 187 -21 26 -42 50 -45 53 -3 3
-14 20 -24 38 -11 17 -23 32 -27 32 -4 0 -8 7 -8 15 0 8 -4 15 -9 15 -5 0 -11
8 -14 18 -4 9 -18 37 -33 62 -70 116 -142 282 -193 445 -17 55 -36 114 -42
130 -6 17 -12 41 -15 55 -3 14 -12 50 -20 80 -9 30 -18 63 -20 73 -2 10 -5 26
-8 35 -6 20 -10 39 -31 142 -9 41 -18 86 -21 100 -3 14 -7 34 -9 45 -2 11 -6
31 -9 45 -2 14 -9 57 -15 95 -6 39 -13 81 -15 95 -3 14 -7 45 -10 70 -3 25 -7
64 -10 85 -15 113 -18 134 -21 180 -2 28 -7 86 -10 130 -8 99 -10 444 -2 505
3 25 8 70 11 100 15 151 70 308 149 425 103 151 298 289 542 382 44 17 89 34
100 38 11 5 22 9 25 10 3 1 12 4 20 7 8 3 62 20 120 38 58 18 122 38 143 46
20 8 37 12 37 10 0 -3 30 4 68 15 37 11 78 22 92 25 14 3 52 12 84 20 32 9 71
17 85 20 14 2 58 11 96 19 39 9 84 17 100 19 17 1 39 6 50 9 11 3 42 9 69 12
27 3 51 7 55 9 3 2 35 7 71 10 67 7 83 9 160 20 25 4 68 8 95 11 28 2 50 5 50
5 0 1 20 3 45 5 25 2 88 6 140 10 52 3 118 8 145 10 28 2 140 6 249 9 110 3
200 7 202 8 6 6 144 3 144 -3z"/>
<path d="M2776 10765 c-102 -35 -144 -112 -140 -255 5 -183 13 -248 50 -427
12 -62 57 -210 80 -267 13 -33 24 -65 24 -71 0 -7 7 -18 15 -25 8 -6 14 -15
13 -18 -5 -18 125 -254 143 -260 5 -2 9 -8 9 -13 0 -33 242 -296 335 -364 22
-17 42 -32 45 -35 12 -13 201 -129 255 -157 55 -28 176 -81 200 -87 6 -2 22
-8 36 -14 21 -8 60 -21 119 -37 3 -1 25 -7 50 -14 38 -11 111 -28 205 -47 11
-2 38 -6 60 -9 22 -3 56 -7 75 -9 155 -20 247 -26 440 -25 165 0 334 9 454 24
23 3 61 8 86 11 25 3 56 7 70 9 14 3 43 8 65 11 109 16 178 103 170 212 -6 79
-59 148 -132 170 -31 9 -130 8 -182 -2 -147 -31 -605 -49 -776 -32 -33 3 -85
8 -115 11 -53 5 -137 19 -190 31 -14 3 -36 7 -48 10 -142 29 -327 98 -451 168
-34 20 -67 36 -71 36 -5 0 -10 4 -12 8 -1 5 -19 19 -39 33 -213 144 -402 403
-488 669 -44 134 -58 195 -76 315 -3 22 -8 94 -10 160 -5 138 -7 151 -31 197
-42 82 -149 123 -238 93z"/>
</g>
</svg>
