<?xml version="1.0" ?><svg data-name="Calque 1" id="Calque_1" viewBox="0 0 100 100" xmlns="http://www.w3.org/2000/svg"><defs><style>.cls-1,.cls-3,.cls-4{fill:none;stroke:#010101;}.cls-1,.cls-4{stroke-miterlimit:10;}.cls-2{fill:#010101;}.cls-3,.cls-4{stroke-linecap:round;}.cls-3{stroke-linejoin:round;}</style></defs><title/><path class="cls-1" d="M21,70.5H16.5c-1.65,0-3-1.85-3-3.5V25.5a3,3,0,0,1,3-3H82c1.65,0,2.5,1.35,2.5,3V51"/><line class="cls-1" x1="76" x2="69" y1="67.5" y2="67.5"/><polyline class="cls-1" points="21 67.5 16.5 67.5 16.5 27.5 82.5 27.5 82.5 52"/><circle class="cls-2" cx="49.38" cy="25.13" r="1.13"/><line class="cls-3" x1="76" x2="70" y1="74.5" y2="74.5"/><line class="cls-3" x1="70" x2="76" y1="70.5" y2="70.5"/><polyline class="cls-3" points="20 74.5 11.5 74.5 8.5 70.5 20 70.5"/><rect class="cls-1" height="27" rx="3" ry="3" width="15" x="76.5" y="51.5"/><rect class="cls-1" height="19" width="11" x="78.5" y="55.5"/><circle class="cls-2" cx="83.89" cy="76.41" r="1.05"/><line class="cls-4" x1="84" x2="84" y1="53.5" y2="53.5"/><rect class="cls-1" height="34" rx="3" ry="3" width="49" x="20.5" y="44.5"/><rect class="cls-1" height="30" width="39" x="23.5" y="46.5"/><circle class="cls-2" cx="21.83" cy="61.65" r="0.63"/><circle class="cls-2" cx="65.15" cy="60.97" r="1.34"/></svg>